<svg xmlns="http://www.w3.org/2000/svg" viewBox="0 0 1000 1000"><defs><style>.a{fill:#fff;}</style></defs><path class="a" d="M512.8,82.47c98.54,0,197.1-1.25,295.61.4,76.07,1.28,107.49,27.15,108.1,95.26q2.88,321.67.06,643.4c-.5,62.89-30.55,94.58-90.66,95.07-220.26,1.76-440.55,2.19-660.79-.46-49.27-.59-82.84-30.11-82.8-85.8.17-220.27-1-440.55.78-660.8.47-58.37,32.83-85.38,99.3-86.55C292.5,81.06,402.66,82.47,512.8,82.47Zm21.79,451.31,105-.33a30,30,0,0,0,29.94-30.09l0-6.22a30,30,0,0,0-30.17-30l-104.71.5V449.29c0-15.5,1.76-32.69-.39-49.37-3.78-29.41,18.94-77.23-40.14-73.07-45.37,3.19-25.69,42.37-28.53,67.3-2.44,21.36-.51,43.22-.51,71-45.17,0-79.47-2.76-112.82,1.66-10.12,1.34-24.67,22.72-24.3,34.52.36,11.4,16.28,30.46,27.2,31.86,33.1,4.22,67.1,1.53,109.92,1.53,0,41.13-2.64,75.23,1.47,108.51,1.39,11.29,19.34,27.91,30.55,28.6,12,.75,34.51-13.14,35.82-22.88C537.36,615.43,534.59,574.2,534.59,533.78Z"/></svg>