<svg xmlns="http://www.w3.org/2000/svg" viewBox="0 0 995.95 995.99"><path d="M998.07,500.3c.38,273.1-220.62,497.57-496.86,498.12S2,775.58,2.12,500.33c.1-276.9,224.65-497,496.14-497.9C774.33,1.51,998.38,225.47,998.07,500.3ZM422,265.1c-12.64.45-29.87,1-47.08,1.72-11.11.49-22.23,1.11-33.31,2.1q-19.26,1.74-38.44,4.26c-14.38,1.92-28.75,4-43,6.53-23.41,4.15-46.44,9.92-69.33,16.33-24.36,6.82-38.71,30.5-34.51,54,4.6,25.73,30.72,43.38,56.15,37.32,8.59-2.05,17-4.77,25.59-6.94,38.3-9.72,77.28-15.31,116.62-18.48,14.81-1.19,29.67-2.15,44.52-2.39q30.36-.49,60.74.35c16.63.46,33.26,1.63,49.85,2.94,13.58,1.08,27.15,2.5,40.63,4.39,17.25,2.41,34.48,5.11,51.61,8.26a680.62,680.62,0,0,1,107,28.8,503.53,503.53,0,0,1,85.44,39.6c10.35,6.08,21.44,8.36,33.26,5.82,18-3.85,30.24-14.58,35.66-32.06s1.36-33.36-11.27-46.83c-5.39-5.74-12.38-9.17-19.09-13-35.63-20.13-73.17-35.85-112-48.54a746.17,746.17,0,0,0-99.13-25.39c-23.2-4.18-46.51-7.81-69.86-11.07-14.85-2.08-29.84-3.29-44.8-4.45-14.33-1.12-28.69-1.86-43.06-2.43C451.6,265.48,439.07,265.44,422,265.1ZM416,436.57c-13.17.51-26.74.83-40.29,1.6-12.39.71-24.79,1.61-37.13,2.95-13.86,1.5-27.71,3.25-41.46,5.49a619.61,619.61,0,0,0-78.85,18.23c-20.55,6.18-32.2,25-28.24,45.92,3.84,20.32,25.09,34.7,45.33,30.28,9.73-2.13,19.24-5.21,28.9-7.67a521.78,521.78,0,0,1,58-11.33q18.19-2.49,36.51-4c13.27-1.09,26.58-2,39.89-2.32A648.65,648.65,0,0,1,484.3,519c12.41,1.37,24.89,2.46,37.17,4.64,20.26,3.58,40.55,7.28,60.54,12.12C636.3,548.91,687.94,568.86,735.8,598a38.93,38.93,0,0,0,29.48,5c16.17-3.48,29.46-18.6,30.29-35,.83-16.1-5.64-28.61-19.4-37.06A567.62,567.62,0,0,0,682.43,485a706.5,706.5,0,0,0-170.06-42c-16.51-2-33.08-3.6-49.66-4.72C447.31,437.28,431.85,437.13,416,436.57Zm5.46,162.6c-11.3.44-24.63.78-37.94,1.55-12.48.72-25,1.57-37.38,2.94-16.67,1.84-33.38,3.72-49.91,6.53-20.77,3.51-41.43,7.75-62,12.11a30.74,30.74,0,0,0-24,34.68c2.66,19,20,30.41,38.79,26.22,34.68-7.76,69.61-14.09,105-17.27,15.45-1.39,30.92-2.9,46.4-3.2,19.74-.38,39.52,0,59.25.85,13.76.58,27.48,2.27,41.19,3.82A434.91,434.91,0,0,1,553,676.94a457.17,457.17,0,0,1,132.45,54.24,31.63,31.63,0,0,0,19.29,4.65c15.83-1.16,28.92-14.82,28.8-30.83-.09-11.93-5.35-21.27-15.62-27.52a516.21,516.21,0,0,0-101.54-47.55c-51-17.47-103.57-26.67-157.3-29.61C447.23,599.67,435.35,599.58,421.46,599.17Z" transform="translate(-2.12 -2.42)"/></svg>