<svg xmlns="http://www.w3.org/2000/svg" viewBox="0 0 995.95 995.99"><defs><style>.a{fill:#fff;}</style></defs><path class="a" d="M996,497.88C996.33,771,775.33,995.45,499.09,996S-.12,773.16,0,497.91C.1,221,224.65.91,496.14,0,772.21-.91,996.26,223.05,996,497.88ZM419.88,262.68c-12.64.45-29.87,1-47.08,1.72-11.11.49-22.23,1.11-33.31,2.1q-19.26,1.74-38.44,4.26c-14.38,1.92-28.75,4-43,6.53-23.41,4.15-46.44,9.92-69.33,16.33-24.36,6.82-38.71,30.5-34.51,54,4.6,25.73,30.72,43.38,56.15,37.32,8.59-2.05,17-4.77,25.59-6.94,38.3-9.72,77.28-15.31,116.62-18.48,14.81-1.19,29.67-2.15,44.52-2.39q30.36-.5,60.74.35c16.63.46,33.26,1.63,49.85,2.94,13.58,1.08,27.15,2.5,40.63,4.39,17.25,2.41,34.48,5.11,51.61,8.26a681.18,681.18,0,0,1,107,28.8,503.53,503.53,0,0,1,85.44,39.6c10.35,6.08,21.44,8.36,33.26,5.82,18-3.85,30.24-14.58,35.66-32.06s1.36-33.36-11.27-46.83c-5.39-5.74-12.38-9.17-19.09-13-35.63-20.13-73.17-35.85-112-48.54a745.38,745.38,0,0,0-99.13-25.39c-23.2-4.18-46.51-7.81-69.86-11.07-14.85-2.08-29.84-3.29-44.8-4.45-14.33-1.12-28.69-1.86-43.06-2.43C449.48,263.06,437,263,419.88,262.68Zm-6,171.47c-13.17.51-26.74.83-40.29,1.6-12.39.71-24.79,1.61-37.13,2.95-13.86,1.5-27.71,3.25-41.46,5.49a619.22,619.22,0,0,0-78.85,18.23c-20.55,6.18-32.2,25-28.24,45.92,3.84,20.32,25.09,34.7,45.33,30.28,9.73-2.13,19.24-5.21,28.9-7.67a522,522,0,0,1,58-11.33q18.19-2.49,36.51-4c13.27-1.09,26.58-2,39.89-2.32a647.9,647.9,0,0,1,85.64,3.28c12.41,1.37,24.89,2.46,37.17,4.64,20.26,3.58,40.55,7.28,60.54,12.12,54.29,13.15,105.93,33.1,153.79,62.24a39,39,0,0,0,29.48,5c16.17-3.48,29.46-18.6,30.29-35,.83-16.1-5.64-28.61-19.4-37.06a567.62,567.62,0,0,0-93.74-45.94,706.41,706.41,0,0,0-170.06-42q-24.76-3-49.66-4.72C445.19,434.86,429.73,434.71,413.88,434.15Zm5.46,162.6c-11.3.44-24.63.78-37.94,1.55-12.48.72-25,1.57-37.38,2.94-16.67,1.84-33.38,3.72-49.91,6.53-20.77,3.51-41.43,7.75-62,12.11a30.74,30.74,0,0,0-24,34.68c2.66,19,20,30.41,38.79,26.22,34.68-7.76,69.61-14.09,105-17.27,15.45-1.39,30.92-2.9,46.4-3.2,19.74-.38,39.52,0,59.25.85,13.76.58,27.48,2.27,41.19,3.82a434.87,434.87,0,0,1,52.14,9.54,457.17,457.17,0,0,1,132.45,54.24,31.61,31.61,0,0,0,19.29,4.65c15.83-1.16,28.92-14.82,28.8-30.83-.09-11.93-5.35-21.27-15.62-27.52a516.48,516.48,0,0,0-101.54-47.55C563.26,610,510.69,600.84,457,597.9c-11.85-.65-23.73-.74-37.62-1.15Z" transform="translate(0 -0.01)"/></svg>