<svg xmlns="http://www.w3.org/2000/svg" viewBox="0 0 1000 1000"><defs><style>.a{fill:#fff;}</style></defs><path class="a" d="M595.44,459.76c0-58.42-7.51-118.08,1.9-174.95,11.53-69.65-49.92-172.92,54.59-201.39,69.41-18.9,274.53,151.89,276.06,215,4.43,182.44,2.81,365.1-.75,547.58-.46,23.84-25.2,66.75-40.42,67.53-86,4.45-175.83,11-256.78-11C606,896,599.91,800.08,596.87,744.5,591.7,649.84,595.45,554.7,595.44,459.76ZM858.51,562h.76c0-65.36,10.13-132.86-3.19-195.39-10.74-50.46-40.58-105-78.55-139.52-48.86-44.4-108.85-54.84-109.5,44.54-1,159.74.84,319.52-.85,479.25-.77,72.36,27.72,105.63,103.41,102.92,66.43-2.39,88.35-36.34,88-95.75C858.23,692.74,858.51,627.39,858.51,562Z"/><path class="a" d="M136.58,515.2c0,109.66,1.22,219.36-1.21,329-.4,18.07-16.8,35.79-25.8,53.68-13.33-13.09-38.15-26.06-38.29-39.28q-3.68-361.79-.49-723.63c.12-14.35,23-28.51,35.26-42.76,10.06,16.72,28.49,33.28,28.82,50.19,2.48,124.23,1.34,248.54,1.34,372.82Z"/><path class="a" d="M400.41,476.55c0,124.28,1.16,248.59-1.41,372.81-.34,16.37-19.73,32.34-30.29,48.49-11.77-14.82-33.63-29.52-33.8-44.47-2.66-233.93-3.58-467.9-1.11-701.81.21-19.94,27.27-39.6,41.86-59.39,8.49,18.46,23.94,36.76,24.33,55.39,2.32,109.62,1.14,219.31,1.14,329Z"/></svg>